<svg viewBox="0 0 405 344" xmlns="http://www.w3.org/2000/svg">
  <defs></defs>
  <g id="SVGRepo_iconCarrier" transform="matrix(-0.78422, 0, 0, 0.738192, 403.657751, -17.14052)" style="">
    <path style="fill:#c86400;" d="M485.274,458.406l-10.922,10.922H102.397c-43.689,0-79.869-33.023-84.733-75.432L485.274,458.406z"></path>
    <path d="M511.556,449.532c-1.024-3.072-3.755-5.29-6.912-5.717l-197.455-27.22v-22.015l160.933,23.466 c3.328,0.427,6.741-1.109,8.533-4.011c1.707-2.987,1.621-6.656-0.427-9.472l-14.933-20.565 c-71.08-97.874-106.919-147.28-154.107-257.698V95.751l75.091,15.018c3.84,0.768,7.765-1.195,9.472-4.779 c1.621-3.584,0.597-7.765-2.475-10.24l-85.331-68.264c-2.56-2.048-6.058-2.475-8.96-1.024c-2.987,1.451-4.864,4.437-4.864,7.68 v28.671C210.254,100.018,105.98,179.461,51.625,347.22c-0.768,2.389-0.427,5.034,0.853,7.168c1.365,2.133,3.499,3.584,6.058,3.925 l231.587,33.791v22.101L9.728,375.55c-2.475-0.341-4.949,0.427-6.826,2.048C1.024,379.219,0,381.523,0,383.998 c0,56.489,45.908,102.397,102.397,102.397h375.454c2.304,0,4.437-0.939,6.058-2.475l25.599-25.599 C511.812,456.017,512.58,452.603,511.556,449.532z M307.19,51.891l44.116,35.241l-44.116-8.789V51.891z M307.19,168.368 c41.215,89.17,78.504,140.454,140.283,225.614l3.072,4.267L307.19,377.342V168.368z M71.08,342.868 C121.425,195.929,211.62,121.692,284.833,84.317c-15.359,53.673-52.82,207.182-4.181,289.185L71.08,342.868z M290.124,133.382 v221.603C261.623,294.571,275.873,196.953,290.124,133.382z M474.352,469.328H102.397c-43.689,0-79.869-33.023-84.733-75.432 l467.611,64.51L474.352,469.328z"></path>
    <polygon style="fill:#25a7f8;" points="351.306,87.133 307.19,78.344 307.19,51.891 "></polygon>
    <g>
      <path style="fill:#FFFFFF;" d="M263.014,96.417c3.584-2.116,7.142-4.164,10.683-6.135 C270.165,92.227,266.598,94.301,263.014,96.417z"></path>
      <path style="fill:#FFFFFF;" d="M260.343,358.399c-40.233-67.838-15.718-191.021,2.645-261.973 c-68.58,40.523-146.461,113.805-191.908,246.443c1.357-3.959,2.85-7.654,4.267-11.511L260.343,358.399z"></path>
    </g>
    <g>
      <polygon style="fill:#F4F4F4;" points="262.989,96.434 262.989,96.434 263.014,96.417 "></polygon>
      <path style="fill:#F4F4F4;" d="M273.698,90.282c3.737-2.056,7.475-4.096,11.136-5.965 C281.164,86.194,277.444,88.191,273.698,90.282z"></path>
      <path style="fill:#F4F4F4;" d="M284.833,84.317c-3.661,1.869-7.398,3.908-11.136,5.965c-3.541,1.971-7.099,4.019-10.683,6.135 c-0.009,0-0.017,0.009-0.026,0.017c-18.363,70.944-42.879,194.135-2.645,261.965L75.347,331.357 c-1.416,3.857-2.91,7.552-4.267,11.511l209.572,30.634C232.014,291.5,269.474,137.99,284.833,84.317z"></path>
    </g>
    <path style="fill:#FFFFFF;" d="M423.581,379.731C373.858,311.194,339.999,264.569,307.19,202.5v164.082l119.463,17.416 L423.581,379.731z"></path>
    <path style="fill:#F4F4F4;" d="M447.473,393.981c-61.779-85.16-99.069-136.443-140.283-225.614v34.124 c32.81,62.069,66.669,108.694,116.391,177.24l3.072,4.267L307.19,366.573v10.769l143.355,20.906L447.473,393.981z"></path>
    <path style="fill:#b45a00;" d="M462.551,455.274l-4.156,4.156H86.44c-13.081,0-25.463-3.012-36.564-8.303 c14.506,11.375,32.724,18.201,52.521,18.201h371.956l10.922-10.922L462.551,455.274z"></path>
  </g>
</svg>